<?xml version="1.0" standalone="no"?>
<!DOCTYPE svg PUBLIC "-//W3C//DTD SVG 20010904//EN"
 "http://www.w3.org/TR/2001/REC-SVG-20010904/DTD/svg10.dtd">
<svg version="1.0" xmlns="http://www.w3.org/2000/svg"
 width="512.000000pt" height="512.000000pt" viewBox="0 0 512.000000 512.000000"
 preserveAspectRatio="xMidYMid meet">
<metadata>
Created by potrace 1.11, written by Peter Selinger 2001-2013
</metadata>
<g transform="translate(0.000000,512.000000) scale(0.100000,-0.100000)"
fill="#000000" stroke="none">
<path d="M2405 3889 c-96 -12 -232 -52 -343 -101 -373 -163 -652 -515 -733
-923 -18 -92 -18 -368 0 -460 47 -237 174 -484 334 -647 160 -164 381 -292
602 -349 96 -24 149 -32 260 -36 279 -10 517 55 748 207 87 56 237 196 303
282 l44 56 -41 31 -41 30 -43 -57 c-55 -73 -162 -176 -245 -234 -403 -285
-919 -291 -1334 -14 -363 243 -562 705 -491 1143 110 681 782 1117 1449 943
232 -61 471 -218 613 -402 24 -32 49 -58 54 -58 6 0 26 11 45 24 l35 23 -45
60 c-25 32 -82 95 -128 139 -279 268 -655 391 -1043 343z"/>
<path d="M2441 3689 c-346 -40 -657 -262 -817 -584 -81 -163 -106 -272 -107
-460 -2 -207 24 -320 114 -495 89 -173 205 -302 367 -408 378 -246 884 -221
1238 61 69 55 214 209 214 228 0 4 -18 19 -41 35 -36 25 -42 26 -50 12 -41
-73 -189 -207 -304 -277 -143 -87 -360 -138 -532 -127 -430 29 -770 309 -881
726 -21 80 -25 117 -25 235 0 119 4 155 26 238 95 358 373 624 733 703 116 25
304 23 419 -5 189 -45 409 -182 520 -323 27 -35 50 -64 51 -66 4 -6 84 42 84
50 0 17 -125 159 -184 208 -241 200 -520 284 -825 249z"/>
<path d="M2368 3470 c-242 -60 -453 -229 -566 -455 -115 -230 -115 -530 0
-760 62 -124 177 -256 288 -332 328 -223 776 -190 1065 79 65 61 133 144 124
151 -2 2 -20 16 -40 30 l-36 27 -28 -41 c-68 -97 -225 -209 -356 -253 -207
-69 -450 -44 -636 65 -78 46 -219 189 -266 269 -163 281 -123 656 94 895 100
109 259 201 399 231 106 22 301 14 390 -16 158 -54 303 -156 382 -269 l17 -25
36 20 c20 10 39 23 42 27 8 13 -43 80 -106 140 -111 106 -251 183 -395 217
-109 27 -300 26 -408 0z"/>
<path d="M2460 3284 c-195 -38 -382 -178 -469 -352 -52 -103 -71 -182 -71
-297 0 -110 19 -194 65 -289 64 -131 169 -236 300 -301 92 -45 180 -65 290
-65 181 0 320 57 452 185 46 44 83 85 83 92 0 7 -16 23 -35 36 l-36 24 -72
-71 c-116 -115 -236 -166 -392 -166 -163 0 -273 46 -391 164 -118 118 -164
228 -164 391 0 158 47 272 161 387 115 116 236 168 395 168 151 0 281 -55 392
-166 l74 -73 39 26 39 25 -20 28 c-64 90 -200 186 -327 231 -57 21 -252 35
-313 23z"/>
</g>
</svg>
