<svg fill="#000000" xmlns="http://www.w3.org/2000/svg"  viewBox="0 0 50 50" width="50px" height="50px"><path d="M 35.939453 2 C 34.199544 2 32.458849 2.4557103 30.902344 3.3671875 C 27.775829 5.1987028 26.042969 8.5881572 26.042969 12.189453 C 26.042969 14.20403 26.743604 16.002191 27.578125 17.59375 C 27.811568 18.039035 27.978662 18.766348 27.863281 19.431641 C 27.7479 20.096933 27.422085 20.724316 26.503906 21.261719 C 25.265666 21.98656 23.763833 21.553971 22.953125 20.238281 C 21.986162 18.668578 20.75979 17.381879 19.097656 16.408203 L 19.097656 16.410156 C 17.520895 15.486307 15.75621 15.028787 13.994141 15.041016 C 12.277868 15.053246 10.563071 15.508753 9.0273438 16.408203 C 5.9485845 18.21041 4 21.366304 4 25 C 4 28.633696 5.9411751 31.825867 9.0253906 33.630859 C 10.58156 34.543901 12.321781 35 14.060547 35 C 15.799312 35 17.540909 34.544432 19.097656 33.632812 C 20.771053 32.65254 21.988519 31.327261 22.951172 29.765625 C 23.225191 29.321039 23.757673 28.770722 24.353516 28.515625 C 24.949358 28.260528 25.581049 28.197501 26.503906 28.738281 C 27.762678 29.475699 28.275313 31.075627 27.576172 32.408203 C 26.741283 33.999416 26.042969 35.797214 26.042969 37.810547 C 26.042969 41.41094 27.77544 44.802186 30.902344 46.632812 C 34.015355 48.455768 37.861598 48.455767 40.974609 46.632812 C 44.086598 44.809807 46 41.444242 46 37.810547 C 46 34.176851 44.086837 30.810317 40.974609 28.988281 C 39.231116 27.967644 37.322157 27.695547 35.533203 27.632812 C 35.013742 27.614362 34.301604 27.414225 33.794922 27.009766 C 33.28824 26.605306 32.919922 26.054964 32.919922 25 C 32.919922 23.55986 34.041667 22.420111 35.533203 22.367188 C 37.321371 22.303438 39.230837 22.032519 40.974609 21.011719 C 44.086598 19.188713 46 15.823149 46 12.189453 C 46 8.5548645 44.086446 5.190104 40.974609 3.3671875 C 39.418104 2.4557103 37.679363 2 35.939453 2 z M 35.939453 3.9980469 C 37.328544 3.9980469 38.717349 4.3632272 39.964844 5.09375 C 42.459008 6.5548335 44 9.2560419 44 12.189453 C 44 15.121758 42.458855 17.826115 39.964844 19.287109 L 39.964844 19.285156 C 38.640616 20.060356 37.096723 20.310892 35.462891 20.369141 C 32.952427 20.458221 30.919922 22.49414 30.919922 25 C 30.919922 26.594036 31.623557 27.835225 32.546875 28.572266 C 33.470193 29.309306 34.546351 29.600262 35.462891 29.632812 C 37.095936 29.690082 38.640337 29.939481 39.964844 30.714844 C 42.458616 32.174855 44 34.878242 44 37.810547 C 44 40.742851 42.458855 43.445256 39.964844 44.90625 C 37.469855 46.367296 34.409051 46.367296 31.914062 44.90625 C 29.434967 43.454878 28.042969 40.776154 28.042969 37.810547 C 28.042969 36.26388 28.588545 34.784678 29.347656 33.337891 C 30.542515 31.060467 29.670854 28.276255 27.515625 27.013672 C 26.112482 26.191452 24.659313 26.209831 23.566406 26.677734 C 22.473499 27.145638 21.713028 27.96043 21.248047 28.714844 C 20.410699 30.073208 19.454541 31.104524 18.085938 31.90625 C 16.838685 32.636631 15.449781 33 14.060547 33 C 12.671312 33 11.28294 32.637208 10.037109 31.90625 L 10.037109 31.904297 L 10.035156 31.904297 C 7.5114191 30.427336 6 27.932304 6 25 C 6 22.067696 7.505869 19.616512 10.037109 18.134766 C 11.267382 17.414215 12.636086 17.050788 14.007812 17.041016 C 15.415743 17.031216 16.824652 17.394614 18.087891 18.134766 C 19.467757 18.94309 20.416963 19.934813 21.25 21.287109 C 22.571292 23.43142 25.333866 24.26544 27.515625 22.988281 C 28.895446 22.180684 29.629866 20.950395 29.833984 19.773438 C 30.038103 18.59648 29.786164 17.496779 29.349609 16.664062 C 28.590131 15.215623 28.042969 13.736876 28.042969 12.189453 C 28.042969 9.2227492 29.434577 6.5462347 31.914062 5.09375 C 33.161558 4.3632272 34.550363 3.9980469 35.939453 3.9980469 z"/></svg>